<?xml version="1.0" encoding="UTF-8" standalone="no"?>
<!-- Created with Inkscape (http://www.inkscape.org/) -->

<svg
   xmlns:dc="http://purl.org/dc/elements/1.1/"
   xmlns:cc="http://creativecommons.org/ns#"
   xmlns:rdf="http://www.w3.org/1999/02/22-rdf-syntax-ns#"
   xmlns:svg="http://www.w3.org/2000/svg"
   xmlns="http://www.w3.org/2000/svg"
   xmlns:sodipodi="http://sodipodi.sourceforge.net/DTD/sodipodi-0.dtd"
   xmlns:inkscape="http://www.inkscape.org/namespaces/inkscape"
   width="500mm"
   height="500mm"
   viewBox="0 0 500 500"
   version="1.1"
   id="svg13246"
   inkscape:version="0.92.1 r15371"
   sodipodi:docname="shark_boy.svg">
  <defs
     id="defs13240" />
  <sodipodi:namedview
     id="base"
     pagecolor="#ffffff"
     bordercolor="#666666"
     borderopacity="1.0"
     inkscape:pageopacity="0.0"
     inkscape:pageshadow="2"
     inkscape:zoom="0.14896042"
     inkscape:cx="1236.0134"
     inkscape:cy="1503.9025"
     inkscape:document-units="mm"
     inkscape:current-layer="layer1"
     showgrid="false"
     inkscape:window-width="1366"
     inkscape:window-height="715"
     inkscape:window-x="-8"
     inkscape:window-y="-8"
     inkscape:window-maximized="1" />
  <metadata
     id="metadata13243">
    <rdf:RDF>
      <cc:Work
         rdf:about="">
        <dc:format>image/svg+xml</dc:format>
        <dc:type
           rdf:resource="http://purl.org/dc/dcmitype/StillImage" />
        <dc:title />
      </cc:Work>
    </rdf:RDF>
  </metadata>
  <g
     inkscape:label="Layer 1"
     inkscape:groupmode="layer"
     id="layer1"
     transform="translate(0,203)">
    <g
       id="g4580"
       transform="matrix(1.2009029,0,0,1.2009029,-50.226679,39.393207)"
       style="stroke-width:0.83270681">
      <path
         style="color:#000000;font-style:normal;font-variant:normal;font-weight:normal;font-stretch:normal;font-size:medium;line-height:normal;font-family:sans-serif;font-variant-ligatures:normal;font-variant-position:normal;font-variant-caps:normal;font-variant-numeric:normal;font-variant-alternates:normal;font-feature-settings:normal;text-indent:0;text-align:start;text-decoration:none;text-decoration-line:none;text-decoration-style:solid;text-decoration-color:#000000;letter-spacing:normal;word-spacing:normal;text-transform:none;writing-mode:lr-tb;direction:ltr;text-orientation:mixed;dominant-baseline:auto;baseline-shift:baseline;text-anchor:start;white-space:normal;shape-padding:0;clip-rule:nonzero;display:inline;overflow:visible;visibility:visible;opacity:1;isolation:auto;mix-blend-mode:normal;color-interpolation:sRGB;color-interpolation-filters:linearRGB;solid-color:#000000;solid-opacity:1;vector-effect:none;fill:#000000;fill-opacity:1;fill-rule:nonzero;stroke:none;stroke-width:19.65874672;stroke-linecap:round;stroke-linejoin:round;stroke-miterlimit:4;stroke-dasharray:none;stroke-dashoffset:0;stroke-opacity:1;color-rendering:auto;image-rendering:auto;shape-rendering:auto;text-rendering:auto;enable-background:accumulate"
         d="m 1221.7754,18.910156 a 12.156411,11.464335 0 0 0 -1.2207,0.0039 12.156411,11.464335 0 0 0 -7.0742,2.603516 c -65.565,50.991338 -89.5129,113.910928 -95.2832,174.529298 -5.5326,58.11907 4.6519,114.00356 9.2109,158.84374 l -83.0312,57.16407 C 948.7445,296.34009 914.4411,174.26908 884.28906,49.746094 A 12.156411,11.464335 0 0 0 873,40.847656 a 12.156411,11.464335 0 0 0 -0.45508,0.002 12.15641,11.464334 0 0 1 0.45508,0.0059 12.156411,11.464335 0 0 0 -1.09766,0.0039 12.15641,11.464334 0 0 1 0.0606,-0.0059 12.156411,11.464335 0 0 0 -0.89258,0.07031 12.156411,11.464335 0 0 0 -0.9082,0.128906 12.156411,11.464335 0 0 0 -0.0547,0.0098 12.156411,11.464335 0 0 0 -1.09375,0.251953 12.156411,11.464335 0 0 0 -2.84765,1.173828 12.156411,11.464335 0 0 0 -0.5293,0.328125 12.15641,11.464334 0 0 0 -0.48242,0.314453 12.156411,11.464335 0 0 0 -0.45899,0.351563 12.15641,11.464334 0 0 0 -0.48242,0.384766 12.156411,11.464335 0 0 0 -0.76367,0.714843 C 766.47539,145.07927 722.08876,279.682 690.61328,423.20312 489.35855,496.02889 355.97899,678.35045 355.81641,882.07617 a 12.156411,11.464335 0 0 0 0,0.0137 c 0.0293,74.5466 18.1774,148.01743 52.72851,214.99413 -60.97874,72.5677 -71.24425,138.492 -80.5,205.9805 -9.50074,69.2752 -18.3563,140.8018 -80.25586,232.5214 a 12.156411,11.464335 0 0 0 14.29883,16.9649 c 83.84494,-27.8971 182.65837,-47.7431 269.55664,-75.7754 84.78855,-27.3516 159.33499,-62.6491 195.9707,-123.9434 48.54887,13.9061 99.02686,21.0741 149.8418,21.2364 a 12.156411,11.464335 0 0 0 0.0801,0 c 47.49237,-0.1497 94.69986,-6.4903 140.35737,-18.6817 33.5744,54.0502 109.6731,85.8245 195.295,113.2266 89.4346,28.6223 190.6599,51.9156 267.957,83.6387 a 12.156411,11.464335 0 0 0 15.3262,-16.3223 c -64.4853,-103.3827 -70.7885,-175.6509 -77.8633,-241.0723 -6.8618,-63.4509 -15.2631,-121.7039 -78.2969,-186.3769 38.4971,-69.9277 58.8241,-147.5194 58.8633,-226.39063 a 12.156411,11.464335 0 0 0 0,-0.0156 c -2e-4,-0.19414 0,-0.38793 0,-0.58203 -0.01,-2.10784 -0.027,-4.21338 -0.061,-6.31641 -0.01,-0.65071 -0.02,-1.30094 -0.033,-1.95117 -0.045,-2.251 -0.104,-4.49896 -0.1816,-6.74414 -0.012,-0.35833 -0.03,-0.71604 -0.043,-1.07422 -0.072,-1.96276 -0.1588,-3.92274 -0.2558,-5.88086 -0.031,-0.62165 -0.059,-1.24406 -0.092,-1.86523 -0.117,-2.18325 -0.2491,-4.36384 -0.3965,-6.54102 -0.041,-0.60259 -0.086,-1.20452 -0.1289,-1.80664 -0.1447,-2.01943 -0.3,-4.0368 -0.4707,-6.05078 -0.025,-0.29806 -0.048,-0.5966 -0.074,-0.89453 -0.1918,-2.21322 -0.4037,-4.42254 -0.6269,-6.62891 -0.068,-0.67038 -0.1363,-1.34003 -0.207,-2.00976 -0.2314,-2.19161 -0.4743,-4.37993 -0.7364,-6.56446 -0.037,-0.30833 -0.078,-0.61564 -0.1152,-0.92383 -0.2375,-1.94657 -0.4902,-3.88932 -0.752,-5.83007 -0.091,-0.67722 -0.1811,-1.35476 -0.2753,-2.03125 -0.2892,-2.07498 -0.5915,-4.1468 -0.9082,-6.21485 -0.102,-0.66533 -0.2078,-1.32954 -0.3125,-1.99414 -0.2788,-1.76894 -0.5683,-3.53515 -0.8672,-5.29883 -0.087,-0.51019 -0.1677,-1.0215 -0.2559,-1.53125 -0.3619,-2.09326 -0.7427,-4.18198 -1.1328,-6.26757 -0.1289,-0.68879 -0.2607,-1.37653 -0.3926,-2.06446 -0.3661,-1.9093 -0.7413,-3.81612 -1.1308,-5.71875 -0.1209,-0.59018 -0.2441,-1.18 -0.3672,-1.76953 -0.3806,-1.82251 -0.7738,-3.64084 -1.1758,-5.45703 -0.1554,-0.70211 -0.3101,-1.40432 -0.4688,-2.10547 -0.4512,-1.9947 -0.9117,-3.98586 -1.3886,-5.97265 -0.185,-0.77021 -0.3776,-1.53764 -0.5664,-2.30665 -0.3457,-1.40813 -0.6982,-2.81471 -1.0567,-4.21875 -0.2122,-0.83077 -0.422,-1.66287 -0.6387,-2.49218 -0.4804,-1.83929 -0.974,-3.67384 -1.4765,-5.50586 -0.2493,-0.90878 -0.5031,-1.8157 -0.7578,-2.72266 -0.3821,-1.36068 -0.7718,-2.71963 -1.166,-4.07617 -0.33,-1.13536 -0.6635,-2.26993 -1.002,-3.40234 -0.4258,-1.42482 -0.8578,-2.84749 -1.2969,-4.26758 -0.2987,-0.96603 -0.5993,-1.93072 -0.9043,-2.89453 -0.5022,-1.5879 -1.0123,-3.1721 -1.5312,-4.75391 -0.3238,-0.98675 -0.6542,-1.97073 -0.9844,-2.95508 -0.4269,-1.27296 -0.8592,-2.5436 -1.2969,-3.8125 -0.3337,-0.96726 -0.6679,-1.93552 -1.0078,-2.90039 -0.5995,-1.70209 -1.2073,-3.40116 -1.8262,-5.0957 -0.346,-0.94727 -0.6987,-1.89106 -1.0507,-2.83594 -0.429,-1.15162 -0.863,-2.30119 -1.3008,-3.44922 -0.3341,-0.87586 -0.6647,-1.7532 -1.0039,-2.62695 -0.068,-0.17629 -0.1404,-0.35115 -0.209,-0.52735 -0.563,-1.44503 -1.1339,-2.88699 -1.7109,-4.32617 -2.3531,-5.86799 -4.8202,-11.68806 -7.4043,-17.45507 -0.064,-0.14226 -0.1295,-0.2836 -0.1934,-0.42579 -1.2046,-2.68132 -2.4356,-5.35122 -3.6895,-8.00976 -0.1628,-0.34532 -0.3265,-0.69023 -0.4902,-1.03516 -1.3005,-2.74034 -2.6222,-5.47017 -3.9746,-8.18555 -0.01,-0.0208 -0.021,-0.0416 -0.031,-0.0625 0,-0.008 -0.01,-0.0156 -0.012,-0.0234 -2.8766,-5.77269 -5.8706,-11.48727 -8.9785,-17.14258 -0.013,-0.024 -0.026,-0.0483 -0.039,-0.0723 -0.024,-0.0444 -0.05,-0.0884 -0.074,-0.13281 -1.4725,-2.67652 -2.9724,-5.33908 -4.4961,-7.98828 -0.1269,-0.22072 -0.2535,-0.44158 -0.3808,-0.66211 -11.3015,-19.5789 -23.9897,-38.40157 -37.9688,-56.33398 l 3.9063,-126.71485 c 90.516,-9.9411 160.7264,-25.05306 216.2969,-53.69726 57.8141,-29.80079 99.5434,-74.30538 131.7129,-139.39258 a 12.156411,11.464335 0 0 0 -16.3907,-15.13672 c -33.5266,15.56746 -57.9639,18.01297 -79.2656,14.88477 -21.3015,-3.12813 -40.0584,-12.35677 -60.5371,-22.22852 -20.4787,-9.87168 -42.7254,-20.33655 -70.2539,-23.2207 -22.9449,-2.40382 -49.3862,1.23858 -80.2149,13.25586 0.4987,-24.39151 -4.0336,-43.76367 -12.2793,-59.33399 -10.3281,-19.50341 -25.5123,-32.91105 -39.9961,-45.26953 -28.9677,-24.71681 -55.8464,-43.920007 -57.416,-104.349609 a 12.156411,11.464335 0 0 0 -11.5898,-11.171875 z m -10.4961,35.548828 c 8.3783,50.798476 38.3782,75.801926 63.1875,96.970706 14.2061,12.12154 26.5161,23.32141 34.5644,38.51953 8.0485,15.19808 12.418,34.92654 8.6993,65.76172 a 12.156411,11.464335 0 0 0 17.5879,11.51562 c 36.1638,-17.34852 62.7502,-21.02298 85.2656,-18.66406 22.5153,2.35892 41.6192,11.09328 61.8789,20.85938 20.2596,9.76612 41.6246,20.61045 67.8711,24.46484 18.2641,2.68211 38.7872,1.35657 61.9238,-5.25586 -27.7711,46.38195 -61.0542,79.00654 -105.9121,102.12891 -53.2902,27.46889 -123.2591,42.58797 -217.8047,52.35351 a 12.156411,11.464335 0 0 0 -10.8281,11.06055 l -3.3691,109.20312 C 1219.6419,502.89113 1149.2,454.61617 1067.5254,424.50586 l 79.8828,-54.99609 a 12.156411,11.464335 0 0 0 4.9356,-10.24415 c -4.3603,-47.50808 -15.3165,-104.62362 -9.9336,-161.16992 4.8118,-50.5483 22.1894,-100.155581 68.8691,-143.636716 z M 866.07812,76.837891 h 0.002 C 896.09299,197.77768 933.89477,319.64489 1032.6074,435.04297 a 12.156411,11.464335 0 0 0 5.5371,3.65625 c 104.2892,33.56351 190.8493,97.57778 250.0899,179.37305 -0.6879,-0.71562 -1.3756,-1.42908 -2.0762,-2.13477 -23.1326,-23.30168 -43.3083,-34.28005 -82.9785,-45.15039 l -24.7109,-6.76953 -284.91997,-1.01172 C 594.91596,561.9489 577.225,562.53107 537.40039,574.67188 c -25.32271,7.71982 -46.98974,19.6192 -65.05859,35.71874 56.71667,-75.12305 136.89998,-134.55915 232.97265,-167.99218 a 12.156411,11.464335 0 0 0 7.70117,-8.46485 C 742.50458,297.65385 783.08133,171.98583 866.07812,76.837891 Z m 151.81448,500.119139 -20.30276,10.15625 v 0.002 c -12.63467,6.3209 -25.8042,15.97398 -34.86718,25.55665 l -14.5625,15.39648 -12.22266,-10.84375 C 900.12913,585.44751 862.12777,584.2238 822.26562,613.56841 l -18.18945,13.39062 -10.50195,-11.60742 c -13.87182,-15.33313 -28.84466,-25.9761 -45.95117,-32.66015 l -13.97657,-5.46094 142.12305,-0.13672 z m -141.68362,35.30078 c 16.48802,-0.0851 33.20489,7.34636 50.53516,22.29688 l 12.83984,11.07812 -3.39062,13.4668 c -4.77051,18.94517 -4.2418,32.80428 2.21875,58.06445 13.96745,54.61228 62.34469,124.44582 109.53909,158.12305 3.7336,2.66427 7.5545,5.19099 11.4453,7.5957 v 0.002 c 67.9459,41.99292 158.2284,44.33322 214.6191,4.09375 1.9228,-1.37206 3.7554,-2.7346 5.5489,-4.09375 0,0 0,-0.002 0,-0.002 20.9895,-15.90668 33.4687,-31.30284 44.8125,-54.8789 20.073,-41.71766 22.1475,-90.32767 8.2578,-134.60157 27.2348,58.23121 42.1602,122.23077 42.2382,188.69727 0,0.26241 -0.013,0.5228 -0.014,0.78516 -0.1771,77.54831 -20.7403,153.84973 -59.8555,222.07223 -2.517,4.3907 -1.7327,9.8121 1.9395,13.4063 64.3982,63.0374 70.4363,113.683 77.4804,178.8203 6.3985,59.1685 13.2217,129.3005 64.3692,221.7695 -74.2759,-26.7571 -161.1929,-47.5325 -237.791,-72.0469 -84.5125,-27.0469 -154.8966,-59.2737 -182.4551,-103.664 1.73,-8.4919 -6.7504,-15.6655 -15.5137,-13.1211 -47.13608,13.7766 -96.18741,20.8601 -145.53515,21.0195 -55.26411,-0.1804 -110.10745,-9.0428 -162.28125,-26.2285 -12.48032,-4.0996 -21.95538,10.8776 -12.20118,19.2871 l 1.19922,1.0313 c -32.62403,50.8508 -99.54978,83.7575 -180.43945,109.8515 -74.78654,24.1252 -160.42577,42.417 -238.61523,66.0157 49.33089,-83.3206 58.42235,-152.5782 66.99609,-215.0938 9.47824,-69.1107 18.24241,-129.4608 79.95117,-200.0996 3.06653,-3.5108 3.64176,-8.3992 1.4668,-12.459 -34.98521,-65.2996 -53.27754,-137.40858 -53.4375,-210.56249 h 0.002 c -0.005,-0.2618 -0.01,-0.52338 -0.01,-0.78515 v -0.01 -0.006 c 0.0515,-62.14228 13.09679,-122.17933 37.07812,-177.38281 -2.3177,11.17041 -3.55589,23.34162 -4.14648,38.05078 -2.27683,56.70465 9.49754,89.03246 45.60937,125.21875 5.51639,5.52778 10.98964,10.47938 16.50977,14.91406 0.002,10e-4 0.003,0.003 0.004,0.004 19.51312,15.67484 39.63564,24.84665 64.51563,29.79883 49.82526,9.91751 108.58343,-1.29119 153.83594,-29.34766 0.23791,-0.14751 0.47681,-0.30352 0.71484,-0.45312 10e-4,-10e-4 0.003,-10e-4 0.004,-0.002 50.96951,-32.00086 108.27609,-110.42038 121.875,-166.93554 3.99442,-16.6001 4.2981,-51.63116 0.5332,-61.53321 -2.43157,-6.39573 -1.23012,-8.63196 10.39062,-19.34375 16.40804,-15.12411 32.66824,-22.7274 49.15625,-22.8125 z m 477.69722,69.9336 c 0.065,0.1366 0.1288,0.27349 0.1934,0.41015 -0.065,-0.13666 -0.1286,-0.27355 -0.1934,-0.41015 z m 14.9825,35.22851 c 0.18,0.47576 0.3605,0.95136 0.539,1.42774 -0.1785,-0.47642 -0.3589,-0.95194 -0.539,-1.42774 z m 5.0293,13.94141 c 0.1896,0.55288 0.3768,1.1065 0.5644,1.66015 -0.1876,-0.5536 -0.3748,-1.10732 -0.5644,-1.66015 z m 2.9004,8.73633 c 0.1479,0.46054 0.2987,0.9198 0.4453,1.38086 -0.1465,-0.46092 -0.2974,-0.92046 -0.4453,-1.38086 z m 1.75,5.55468 c 0.1118,0.36353 0.221,0.72797 0.332,1.0918 -0.111,-0.36385 -0.2202,-0.72826 -0.332,-1.0918 z m 2.4843,8.36719 c 0.1848,0.64292 0.3707,1.28584 0.5528,1.92969 -0.1821,-0.6439 -0.368,-1.28671 -0.5528,-1.92969 z m 3.9512,14.63086 c 0.145,0.57384 0.2888,1.14813 0.4316,1.72266 -0.1428,-0.57455 -0.2866,-1.1488 -0.4316,-1.72266 z m 2.0156,8.30664 c 0.1742,0.7467 0.351,1.49243 0.5215,2.24024 -0.1705,-0.74783 -0.3473,-1.49352 -0.5215,-2.24024 z m 1.3887,6.13086 c 0.1498,0.68371 0.2966,1.36813 0.4434,2.05273 -0.1467,-0.68445 -0.2937,-1.36918 -0.4434,-2.05273 z m 1.8281,8.75586 c 0.1346,0.67625 0.2708,1.35221 0.4024,2.0293 -0.1316,-0.67712 -0.2678,-1.35302 -0.4024,-2.0293 z m 2.6739,14.65625 c 0.1321,0.79641 0.2626,1.59315 0.3906,2.39062 -0.128,-0.79749 -0.2586,-1.5942 -0.3906,-2.39062 z m 2.2949,15.42773 c 0.064,0.48474 0.1252,0.96998 0.1875,1.45508 -0.062,-0.48514 -0.1238,-0.97029 -0.1875,-1.45508 z m 1.1465,9.48829 c 0.041,0.37191 0.085,0.74311 0.125,1.11523 -0.04,-0.37204 -0.084,-0.7434 -0.125,-1.11523 z m 0.5781,5.49218 c 0.048,0.48911 0.092,0.9793 0.1387,1.46875 -0.047,-0.48947 -0.091,-0.97962 -0.1387,-1.46875 z m 0.832,9.45703 c 0.031,0.3952 0.064,0.79015 0.094,1.18555 -0.03,-0.39544 -0.063,-0.79031 -0.094,-1.18555 z m 0.9492,15.45118 c 0.01,0.15753 0.015,0.31509 0.022,0.47265 -0.01,-0.15755 -0.014,-0.31513 -0.022,-0.47265 z m -148.6933,121.73828 -0.01,0.004 a 6.9125295,6.9125295 0 0 0 -0.498,0.0371 6.9125295,6.9125295 0 0 0 -0.3711,0.0469 6.9125295,6.9125295 0 0 0 -0.3047,0.0547 6.9125295,6.9125295 0 0 0 -1.0215,0.28711 6.9125295,6.9125295 0 0 0 -0.014,0.004 6.9125295,6.9125295 0 0 0 -0.2968,0.11914 6.9125295,6.9125295 0 0 0 -2.1426,1.41602 c -50.609,49.49734 -136.3578,86.83144 -237.2129,105.01364 -0.02,0 -0.042,0.01 -0.062,0.01 -2.0657,0.3722 -4.1368,0.7376 -6.2149,1.0937 -0.8049,0.1379 -1.6092,0.2766 -2.41597,0.4121 -15.0428,2.5263 -30.40338,4.6267 -46.01758,6.2832 -0.0273,0 -0.0546,0.01 -0.082,0.01 -2.25047,0.2385 -4.50679,0.4656 -6.76758,0.6855 -0.93735,0.091 -1.87537,0.1816 -2.81445,0.2696 -2.08773,0.1955 -4.17934,0.3829 -6.27539,0.5625 -0.77953,0.067 -1.55724,0.1372 -2.33789,0.2012 -2.84825,0.2356 -5.70371,0.4581 -8.56641,0.664 -0.47056,0.034 -0.94312,0.063 -1.41406,0.096 -2.41842,0.1697 -4.8414,0.3283 -7.26953,0.4766 -0.85027,0.052 -1.7013,0.1033 -2.55273,0.1523 -2.2175,0.1284 -4.439,0.247 -6.66407,0.3574 -0.72861,0.036 -1.45614,0.073 -2.18554,0.1075 -2.94293,0.1381 -5.89239,0.2646 -8.84766,0.3711 h -0.10156 c -0.19372,0.01 -0.38827,0.01 -0.58203,0.017 -2.61646,0.092 -5.23781,0.1694 -7.86329,0.2364 -0.0898,0 -0.17974,0 -0.26953,0.01 -0.14442,0 -0.28911,0.01 -0.43359,0.01 -0.75758,0.018 -1.51533,0.036 -2.27344,0.053 -2.08484,0.045 -4.17164,0.083 -6.26172,0.1133 -0.67636,0.01 -1.35267,0.02 -2.02929,0.029 -0.0996,0 -0.19913,0 -0.29883,0 -0.0853,0 -0.1705,0 -0.25586,0 -2.9434,0.033 -5.89088,0.054 -8.84375,0.055 -7.19495,-0.01 -14.36492,-0.1061 -21.50195,-0.2988 h -0.002 c -30.92923,-0.8352 -61.26143,-3.4116 -90.53711,-7.5742 0,0 -0.002,0 -0.002,0 -6.75542,-0.9606 -13.45455,-2.0052 -20.0918,-3.1329 0,0 -0.002,0 -0.002,0 -4.42461,-0.7517 -8.82154,-1.5406 -13.18945,-2.3652 0,0 -0.002,0 -0.002,0 -76.44859,-14.432 -143.95606,-39.936 -193.55273,-73.5 0,0 -0.002,0 -0.002,0 -1.41661,-0.9587 -2.81791,-1.9247 -4.20508,-2.8965 0,0 -0.002,0 -0.002,0 -9.7132,-6.8045 -18.69874,-13.9272 -26.88672,-21.34566 a 6.9125295,6.9125295 0 0 0 -0.41602,-0.34179 6.9125295,6.9125295 0 0 0 -0.30273,-0.22071 6.9125295,6.9125295 0 0 0 -0.25196,-0.16601 6.9125295,6.9125295 0 0 0 -0.32422,-0.18945 6.9125295,6.9125295 0 0 0 -0.29492,-0.15625 6.9125295,6.9125295 0 0 0 -0.31445,-0.14453 6.9125295,6.9125295 0 0 0 -0.31836,-0.12891 6.9125295,6.9125295 0 0 0 -0.32617,-0.11133 6.9125295,6.9125295 0 0 0 -0.33594,-0.0996 6.9125295,6.9125295 0 0 0 -0.33203,-0.0762 6.9125295,6.9125295 0 0 0 -0.33594,-0.0644 6.9125295,6.9125295 0 0 0 -0.36523,-0.0469 6.9125295,6.9125295 0 0 0 -0.30664,-0.0273 6.9125295,6.9125295 0 0 0 -0.38672,-0.01 6.9125295,6.9125295 0 0 0 -0.31055,0.004 6.9125295,6.9125295 0 0 0 -0.38476,0.0273 6.9125295,6.9125295 0 0 0 -0.29102,0.0332 6.9125295,6.9125295 0 0 0 -0.37695,0.0664 6.9125295,6.9125295 0 0 0 -0.32617,0.0703 6.9125295,6.9125295 0 0 0 -0.32227,0.0899 6.9125295,6.9125295 0 0 0 -0.33789,0.10937 6.9125295,6.9125295 0 0 0 -0.33399,0.13086 6.9125295,6.9125295 0 0 0 -0.28906,0.12695 6.9125295,6.9125295 0 0 0 -0.34179,0.17383 6.9125295,6.9125295 0 0 0 -0.0723,0.0391 6.9125295,6.9125295 0 0 0 -0.14258,0.082 6.9125295,6.9125295 0 0 0 -0.0508,0.0273 6.9125295,6.9125295 0 0 0 -0.32422,0.20899 6.9125295,6.9125295 0 0 0 -0.0547,0.0371 6.9125295,6.9125295 0 0 0 -0.15234,0.10743 6.9125295,6.9125295 0 0 0 -0.0469,0.0332 6.9125295,6.9125295 0 0 0 -0.29101,0.23047 6.9125295,6.9125295 0 0 0 -0.24414,0.21289 6.9125295,6.9125295 0 0 0 -0.26758,0.26172 6.9125295,6.9125295 0 0 0 -0.0449,0.0488 6.9125295,6.9125295 0 0 0 -0.13086,0.13671 6.9125295,6.9125295 0 0 0 -0.0352,0.0371 6.9125295,6.9125295 0 0 0 -0.25586,0.30469 6.9125295,6.9125295 0 0 0 -0.16015,0.20508 6.9125295,6.9125295 0 0 0 -0.008,0.01 6.9125295,6.9125295 0 0 0 -1.33789,4.44335 c 3.28354,63.6973 48.68744,119.9199 118.15039,159.9278 69.46297,40.0078 163.46754,64.3018 266.75,64.3398 105.42627,-0.01 200.99041,-25.2477 270.76761,-66.5703 62.8199,-37.2025 105.1347,-87.9333 113.1309,-145.1504 0,-0.022 0.01,-0.044 0.01,-0.066 0.078,-0.5599 0.1556,-1.1205 0.2266,-1.6816 0.055,-0.4356 0.1062,-0.8723 0.1582,-1.3086 0.072,-0.6122 0.1411,-1.2243 0.2051,-1.8379 0.052,-0.4951 0.1014,-0.9903 0.1484,-1.4863 0.053,-0.5621 0.1024,-1.1244 0.1484,-1.6876 0.041,-0.5039 0.083,-1.0088 0.1192,-1.5136 0.045,-0.62981 0.082,-1.26146 0.1191,-1.89263 0.024,-0.42329 0.051,-0.8456 0.072,-1.26953 0.036,-0.72228 0.061,-1.44582 0.086,-2.16992 0.012,-0.36386 0.029,-0.72748 0.039,-1.0918 0.029,-1.07569 0.051,-2.15283 0.051,-3.23242 a 6.9125295,6.9125295 0 0 0 -0.033,-0.68945 6.9125295,6.9125295 0 0 0 -0.2696,-1.35352 6.9125295,6.9125295 0 0 0 -1.3086,-2.41602 6.9125295,6.9125295 0 0 0 -0.4707,-0.50586 6.9125295,6.9125295 0 0 0 -2.3046,-1.49218 6.9125295,6.9125295 0 0 0 -2.7051,-0.47461 z m -756.33205,6.35937 a 6.9125295,6.9125295 0 0 0 -0.0312,0.002 6.9125295,6.9125295 0 0 1 0.0742,0 6.9125295,6.9125295 0 0 0 -0.043,-0.002 z m 748.17965,16.49614 c -2.684,20.7787 -10.3571,40.8344 -22.4043,59.7285 l -54.83,-10.2403 c 29.5328,-14.3189 55.5988,-30.9064 77.2343,-49.4882 z m -738.93161,6.2773 c 12.80198,10.2346 26.97661,19.8206 42.34571,28.7109 l -29.9961,8.543 c -5.89597,-12.0545 -10.05924,-24.5065 -12.34961,-37.2539 z m 49.86524,36.6758 -2.14258,49.3633 c -12.45388,-12.6276 -22.77753,-26.0158 -30.72656,-40.002 z m 9.67383,1.4297 c 16.31275,8.4284 33.77312,16.1318 52.21093,23.0625 l -54.54297,30.6797 z m 586.94534,12.1445 64.0703,11.9805 c -17.7008,24.4482 -42.9015,46.7384 -74.2754,65.8476 l 9.459,-77.5 c 0.2485,-0.1093 0.4979,-0.2186 0.7461,-0.3281 z m -11.0879,4.7363 -8.5879,70.3477 -59.0606,-47.377 c 23.8119,-6.5294 46.4551,-14.2179 67.6485,-22.9707 z m -513.76955,11.791 13.79492,79.4727 c -9.16523,-4.3627 -17.97029,-8.9725 -26.37695,-13.8145 -17.25866,-9.9401 -32.78737,-20.8268 -46.39258,-32.4902 z m 10.12695,1.4629 c 23.13237,7.7175 47.59208,14.2815 73.09375,19.5879 l -60.28516,54.1973 z m 416.7539,14.6504 -34.0586,92.543 -62.11522,-76.0469 c 33.38666,-3.5381 65.62482,-9.1 96.17382,-16.4961 z m 10.2422,0.3164 65.0059,52.1465 c -28.8622,15.997 -62.1423,29.3428 -98.6661,39.3203 z m -333.9961,8.4532 c 30.48554,5.4574 62.26895,9.1655 94.86914,10.9804 L 757.5,1191.2266 Z m -10.12891,0.4648 31.01563,90.3887 c -35.28438,-7.3247 -68.13524,-17.681 -97.60938,-30.5274 z m 216.4375,9.2187 -51.20312,87.8692 -40.94336,-85.7031 c 8.81729,0.2855 17.6837,0.4372 26.59375,0.4472 a 6.9125295,6.9125295 0 0 0 0.0156,0 c 22.16316,-0.01 44.04698,-0.9105 65.53711,-2.6133 z m 10.86524,0.6758 63.42967,77.6524 c -36.63064,8.5249 -76.13018,13.7365 -117.40819,14.9707 z m -112.52344,4.1407 42.39258,88.748 c -0.96678,0 -1.92794,0.023 -2.89649,0.023 -37.37965,-0.015 -73.49125,-3.3046 -107.54882,-9.3808 z"
         id="path12303"
         inkscape:connector-curvature="0"
         transform="matrix(0.26593556,0,0,0.26593556,-2.2067889,-202.70448)" />
      <path
         inkscape:connector-curvature="0"
         id="path12283"
         d="m 229.70121,-191.84277 a 3.2328217,3.0487741 0 0 0 -0.0382,0.004 3.232822,3.0487744 0 0 1 0.29197,-10e-4 3.2328217,3.0487741 0 0 0 -0.25321,-0.003 z m -0.1881,0.0145 a 3.2328217,3.0487741 0 0 0 -0.16898,0.0165 3.232822,3.0487744 0 0 1 0.16898,-0.0165 z m -0.31264,0.0413 a 3.2328217,3.0487741 0 0 0 -0.17984,0.0351 3.232822,3.0487744 0 0 1 0.17984,-0.0351 z m -0.30541,0.0693 a 3.2328217,3.0487741 0 0 0 -0.1819,0.0543 3.232822,3.0487744 0 0 1 0.1819,-0.0543 z m -0.30076,0.0992 a 3.2328217,3.0487741 0 0 0 -0.18242,0.0734 3.232822,3.0487744 0 0 1 0.18242,-0.0734 z m -0.30127,0.13281 a 3.2328217,3.0487741 0 0 0 -0.15555,0.0801 3.232822,3.0487744 0 0 1 0.15555,-0.0801 z m -0.29611,0.16743 a 3.2328217,3.0487741 0 0 0 -0.12867,0.0837 3.232822,3.0487744 0 0 1 0.12867,-0.0837 z m -0.25063,0.17725 a 3.2328217,3.0487741 0 0 0 -0.12816,0.10232 3.232822,3.0487744 0 0 1 0.12816,-0.10232 z m 92.16905,2.9192 c -12.4138,11.56318 -17.03501,24.75559 -18.31464,38.19818 -1.4315,15.03767 1.48219,30.22635 2.6417,42.86044 a 3.232822,3.0487744 0 0 1 -1.31259,2.72438 l -21.24366,14.625459 c 21.72017,8.007403 40.45312,20.845232 55.00025,36.930563 l 0.89607,-29.040606 a 3.232822,3.0487744 0 0 1 2.87943,-2.94142 c 25.14304,-2.597005 43.75026,-6.617713 57.92203,-13.922668 11.9293,-6.149058 20.7804,-14.824968 28.16572,-27.159578 -6.15286,1.75848 -11.61064,2.1106 -16.46772,1.39733 -6.97987,-1.02502 -12.66127,-3.9089 -18.04903,-6.50606 -5.38776,-2.59715 -10.46821,-4.91963 -16.45584,-5.54695 -5.98763,-0.62732 -13.05785,0.34993 -22.67511,4.96352 a 3.232822,3.0487744 0 0 1 -4.67722,-3.06286 c 0.98895,-8.20017 -0.1732,-13.44663 -2.31355,-17.48834 -2.14034,-4.04172 -5.4138,-7.01975 -9.1917,-10.2433 -6.59768,-5.62953 -14.57606,-12.27897 -16.80414,-25.78809 z m -91.80111,5.95106 c -22.0718,25.30322 -32.86285,58.72311 -40.70501,94.964739 a 3.232822,3.0487744 0 0 1 -2.04794,2.251025 c -25.54914,8.891032 -46.87241,24.696899 -61.95539,44.674792 4.80515,-4.281442 10.56706,-7.445669 17.30127,-9.498645 10.59078,-3.228668 15.29547,-3.383219 94.71257,-3.102136 l 75.77005,0.268719 6.57169,1.800407 c 10.54973,2.890811 15.91509,5.810274 22.06686,12.007019 0.18632,0.187669 0.36949,0.377616 0.55243,0.567923 -15.75417,-21.752271 -38.77387,-38.776266 -66.50808,-47.701996 a 3.232822,3.0487744 0 0 1 -1.47227,-0.972034 C 246.1492,-117.69936 236.09625,-150.10853 228.11475,-182.27072 Z m 40.37273,132.999627 -37.79563,0.03617 -37.79562,0.03669 3.71708,1.452107 c 4.54923,1.777527 8.53092,4.607634 12.21993,8.685258 l 2.79311,3.08715 4.83691,-3.561022 c 10.60076,-7.803774 20.70696,-7.478638 30.22968,0.972035 l 3.25045,2.884061 3.87263,-4.094842 c 2.41017,-2.548369 5.9123,-5.115015 9.27231,-6.795966 v -5.29e-4 z m -37.67884,9.387541 c -4.38475,0.02262 -8.70859,2.044774 -13.07207,6.066814 -3.09037,2.848644 -3.40978,3.443534 -2.76314,5.144386 1.00122,2.633306 0.92015,11.949303 -0.14211,16.36386 -3.61652,15.0297515 -18.85712,35.884927 -32.41197,44.394707 h 97.1057 c -1.03503,-0.63968 -2.05156,-1.311799 -3.04478,-2.020549 -12.55067,-8.955974 -25.41608,-27.5273156 -29.13052,-42.050662 -1.71809,-6.717578 -1.8588,-10.40324 -0.59015,-15.441435 l 0.90176,-3.581178 -3.41426,-2.946072 c -4.60762,-3.97579 -9.05371,-5.952498 -13.43846,-5.929871 z m 121.8184,8.715746 c 11.05363,18.88201 17.2317,40.4533277 17.25787,63.038013 a 3.232822,3.0487744 0 0 1 0,0.0047 c -5e-5,0.06073 0,0.121163 0,0.181901 0,-0.06071 0.004,-0.121166 0.004,-0.181901 a 3.2328217,3.0487741 0 0 0 0,-0.0047 c -0.0288,-22.5846801 -6.20712,-44.156003 -17.26096,-63.038013 z m -0.4377,12.863814 c 3.69377,11.7740028 3.14187,24.701023 -2.19625,35.795232 -3.01684,6.269935 -6.3354,10.364663 -11.91761,14.594975 h 25.34264 c 1.9e-4,-0.06977 0.004,-0.139507 0.004,-0.209291 -0.0206,-17.675807 -3.99021,-34.6951663 -11.23292,-50.180916 z m -243.4456,3.003952 c -6.37749,14.6805698 -9.846672,30.64647 -9.860383,47.172313 v 0.0016 0.0026 c 2.7e-5,0.06996 0.0013,0.139838 0.0026,0.209807 h 25.275973 c -1.46838,-1.179571 -2.92408,-2.496791 -4.39146,-3.9672 -9.60342,-9.623221 -12.73498,-18.2199935 -12.12949,-33.2997775 0.15706,-3.9116895 0.48642,-7.1486685 1.10278,-10.1192775 z"
         style="color:#000000;font-style:normal;font-variant:normal;font-weight:normal;font-stretch:normal;font-size:medium;line-height:normal;font-family:sans-serif;font-variant-ligatures:normal;font-variant-position:normal;font-variant-caps:normal;font-variant-numeric:normal;font-variant-alternates:normal;font-feature-settings:normal;text-indent:0;text-align:start;text-decoration:none;text-decoration-line:none;text-decoration-style:solid;text-decoration-color:#000000;letter-spacing:normal;word-spacing:normal;text-transform:none;writing-mode:lr-tb;direction:ltr;text-orientation:mixed;dominant-baseline:auto;baseline-shift:baseline;text-anchor:start;white-space:normal;shape-padding:0;clip-rule:nonzero;display:inline;overflow:visible;visibility:visible;opacity:1;isolation:auto;mix-blend-mode:normal;color-interpolation:sRGB;color-interpolation-filters:linearRGB;solid-color:#000000;solid-opacity:1;vector-effect:none;fill:#0099cc;fill-opacity:1;fill-rule:nonzero;stroke:none;stroke-width:5.22795963;stroke-linecap:round;stroke-linejoin:round;stroke-miterlimit:4;stroke-dasharray:none;stroke-dashoffset:0;stroke-opacity:1;color-rendering:auto;image-rendering:auto;shape-rendering:auto;text-rendering:auto;enable-background:accumulate" />
      <path
         inkscape:connector-curvature="0"
         id="path4568"
         d="m 98.884911,32.085676 c 0.04254,19.454225 4.907219,38.630582 14.211029,55.996059 0.5784,1.079632 0.42534,2.379345 -0.39016,3.31298 -16.410555,18.785365 -18.741158,34.834835 -21.261759,53.213825 -2.280063,16.62512 -4.697645,35.04324 -17.816484,57.20114 20.793358,-6.27573 43.567703,-11.14028 63.456103,-17.55603 21.51144,-6.93933 39.30932,-15.69069 47.98521,-29.21373 l -0.31884,-0.27387 c -2.59399,-2.23639 -0.0742,-6.21964 3.24476,-5.1294 13.87487,4.57028 28.45986,6.9273 43.15655,6.97527 13.12332,-0.0424 26.16739,-1.92614 38.70255,-5.58983 2.33047,-0.67665 4.58592,1.23089 4.12584,3.48919 7.3288,11.80497 26.04672,20.37506 48.52159,27.56781 20.37017,6.5192 43.48437,12.04444 63.23696,19.1601 -13.60193,-24.5908 -15.41674,-43.24125 -17.11833,-58.97626 -1.87328,-17.32233 -3.47864,-30.79084 -20.60443,-47.554732 -0.97657,-0.955833 -1.18508,-2.397522 -0.51573,-3.565154 10.4022,-18.142955 15.87039,-38.434335 15.91738,-59.057368 h -25.34161 c -0.47712,0.361593 -0.96485,0.7238 -1.47639,1.088824 -14.99656,10.701301 -39.00624,10.079175 -57.07559,-1.088824 H 182.4194 c -0.0635,0.0399 -0.12722,0.08157 -0.19069,0.120923 -12.03425,7.461213 -27.65988,10.442112 -40.91019,7.804692 -6.61696,-1.317056 -11.96854,-3.756557 -17.15813,-7.925615 z m 231.333749,26.77201 a 1.8382874,1.8382874 0 0 1 1.88619,1.843299 c -0.0659,17.300205 -11.89718,32.72753 -30.45344,43.716705 -18.55623,10.98916 -43.96987,17.70132 -72.00646,17.70333 -27.46648,-0.01 -52.46566,-6.47057 -70.93833,-17.11008 C 140.23395,94.371437 128.15951,79.420097 127.2863,62.480721 a 1.8382874,1.8382874 0 0 1 3.0701,-1.456243 c 19.90833,18.037294 57.56715,29.518411 98.3899,29.549103 42.17982,-0.0127 80.87422,-12.258225 100.23471,-31.193446 a 1.8382874,1.8382874 0 0 1 1.23765,-0.522449 z"
         style="opacity:1;vector-effect:none;fill:#66ccff;fill-opacity:1;stroke:none;stroke-width:5.22795963;stroke-linecap:round;stroke-linejoin:round;stroke-miterlimit:4;stroke-dasharray:none;stroke-dashoffset:0;stroke-opacity:1;paint-order:fill markers stroke" />
      <path
         inkscape:connector-curvature="0"
         id="path12278"
         d="m 330.21912,58.856136 a 1.8382874,1.8382874 0 0 0 0,5.29e-4 1.8382874,1.8382874 0 0 0 -0.36484,0.04651 1.8382874,1.8382874 0 0 1 0.36431,-0.04548 1.8382874,1.8382874 0 0 1 1.88618,1.8433 c -0.009,2.432838 -0.25098,4.828791 -0.71157,7.180434 0.46072,-2.351987 0.70335,-4.747734 0.71261,-7.180953 a 1.8382874,1.8382874 0 0 0 -1.88566,-1.844331 z m 1.17408,9.025297 c -0.30707,1.567736 -0.71146,3.115707 -1.20872,4.642088 0.49723,-1.526222 0.90165,-3.074511 1.20872,-4.642088 z m -1.71566,-8.928145 a 1.8382874,1.8382874 0 0 0 -0.32919,0.148828 1.8382874,1.8382874 0 0 1 0.32919,-0.148828 z m -0.6966,0.426847 c -0.6047,0.591378 -1.22824,1.176256 -1.87018,1.754415 0.64191,-0.578173 1.26551,-1.163024 1.87018,-1.754415 z m -199.79142,1.167887 a 1.8382874,1.8382874 0 0 0 -1.6738,0.944644 1.8382874,1.8382874 0 0 1 2.84065,-0.468188 c 19.90835,18.037294 57.5671,29.518411 98.38986,29.549103 13.84066,-0.0042 27.30561,-1.325589 39.83582,-3.768249 -12.5299,2.442501 -25.99506,3.763539 -39.8353,3.76772 -40.82276,-0.03066 -78.48099,-11.512841 -98.38934,-29.550124 a 1.8382874,1.8382874 0 0 0 -1.16789,-0.474906 z m 139.39253,26.25731 c 2.38627,-0.46519 4.73874,-0.971021 7.05331,-1.516194 -2.31457,0.545147 -4.66704,1.05103 -7.05331,1.516194 z m 57.17222,-24.485843 c -0.54139,0.461698 -1.09185,0.919893 -1.65677,1.372526 0.56499,-0.452718 1.1153,-0.910741 1.65677,-1.372526 z m 2.29494,2.616391 c -5.75365,4.94157 -12.68547,9.352518 -20.53931,13.160427 l 14.58153,2.723357 c 3.20376,-5.024597 5.24399,-10.357988 5.95778,-15.883784 z m -196.5079,1.66915 c 0.60909,3.39 1.71609,6.701684 3.28404,9.907402 l 7.97677,-2.272215 c -4.08719,-2.364264 -7.85631,-4.913445 -11.26081,-7.635187 z m 185.82432,1.917171 c -0.74239,0.478843 -1.50008,0.950701 -2.27015,1.416473 0.76994,-0.465719 1.52786,-0.93771 2.27015,-1.416473 z m -6.28232,3.718136 c -2.19019,1.190811 -4.47426,2.332382 -6.84453,3.422015 2.37027,-1.089633 4.65434,-2.231178 6.84453,-3.422015 z m 18.84487,1.044364 c -0.176,0.506148 -0.36179,1.009861 -0.55811,1.511035 0.19632,-0.501174 0.38211,-1.004887 0.55811,-1.511035 z m -1.17824,3.008101 c -0.2163,0.495855 -0.44247,0.989435 -0.6785,1.479999 0.23611,-0.490696 0.46212,-0.983985 0.6785,-1.479999 z m -183.94794,0.06562 -8.74107,2.489782 c 2.11393,3.719433 4.85967,7.279481 8.1716,10.6376 z m 2.57246,0.380339 -0.62012,14.292156 14.50506,-8.159194 c -4.90327,-1.843114 -9.5468,-3.891545 -13.88494,-6.132962 z m 151.01301,1.438169 c -1.00127,0.401876 -2.01576,0.794808 -3.04221,1.179248 1.02645,-0.38444 2.04094,-0.777372 3.04221,-1.179248 z m -3.04271,1.179777 c -1.02645,0.384413 -2.06492,0.75991 -3.11558,1.126543 1.0505,-0.366607 2.08926,-0.742183 3.11558,-1.126543 z m 8.1194,0.611849 c -0.066,0.02913 -0.13235,0.05824 -0.19844,0.08731 l -2.5151,20.609614 c 8.34345,-5.081826 15.045,-11.009419 19.75228,-17.511078 z m -12.82041,1.057804 c -1.06262,0.35769 -2.13665,0.70657 -3.22202,1.045924 1.08521,-0.339328 2.15956,-0.688287 3.22202,-1.045924 z m 9.87173,0.201533 c -5.63607,2.327672 -11.65767,4.372266 -17.9901,6.108674 l 15.70654,12.599246 z m -13.09478,0.844921 c -1.62775,0.508926 -3.2806,0.996659 -4.95681,1.463463 1.67621,-0.466804 3.32906,-0.954511 4.95681,-1.463463 z m 38.2638,0.04445 c -0.2935,0.473868 -0.59595,0.94488 -0.90794,1.412822 0.31199,-0.467942 0.61444,-0.938954 0.90794,-1.412822 z m -43.22164,1.419542 c -1.67625,0.466805 -3.3759,0.91231 -5.09739,1.335828 1.72149,-0.423545 3.42114,-0.869023 5.09739,-1.335828 z m -118.57675,0.826819 -15.68328,8.820653 c 3.61811,3.10171 7.74754,5.996834 12.33723,8.640282 2.23563,1.28765 4.5772,2.51349 7.01456,3.67369 z m 2.69286,0.389123 3.40651,19.622062 16.03209,-14.413078 c -6.7818,-1.411155 -13.28688,-3.156638 -19.4386,-5.208984 z m 155.144,2.907823 c -0.73154,0.898658 -1.49799,1.784562 -2.29803,2.656682 0.80007,-0.87212 1.56649,-1.758024 2.29803,-2.656682 z m -44.31408,0.98806 c -8.12406,1.966886 -16.69751,3.445907 -25.57621,4.386819 l 16.51889,20.22356 z m 2.72386,0.08424 -8.95138,24.324099 c 9.71296,-2.65337 18.56324,-6.20257 26.2387,-10.45673 z m 39.29166,1.584907 c -0.80008,0.872146 -1.63399,1.730666 -2.5001,2.575031 0.86614,-0.844365 1.70002,-1.702912 2.5001,-2.575031 z m -128.1131,0.663019 7.9282,23.104003 17.30075,-20.18377 c -8.66955,-0.482653 -17.12176,-1.468914 -25.22895,-2.920233 z m -2.69389,0.123508 -17.70952,15.919425 c 7.83822,3.4163 16.57422,6.17048 25.95759,8.11837 z m 57.55876,2.451523 c -5.71499,0.452808 -11.53495,0.693341 -17.42892,0.695034 a 1.8382874,1.8382874 0 0 1 -0.004,0 c -2.3695,-0.0026 -4.72761,-0.04291 -7.07244,-0.118851 l 10.88823,22.791369 z m 2.88922,0.179837 -14.35468,24.632075 c 10.97729,-0.32821 21.4815,-1.71458 31.2229,-3.98166 z m -29.92375,1.101223 -18.0976,21.112932 c 9.05712,1.61587 18.66025,2.49042 28.60083,2.49442 0.25757,0 0.5134,-0.005 0.7705,-0.006 z"
         style="color:#000000;font-style:normal;font-variant:normal;font-weight:normal;font-stretch:normal;font-size:medium;line-height:normal;font-family:sans-serif;font-variant-ligatures:normal;font-variant-position:normal;font-variant-caps:normal;font-variant-numeric:normal;font-variant-alternates:normal;font-feature-settings:normal;text-indent:0;text-align:start;text-decoration:none;text-decoration-line:none;text-decoration-style:solid;text-decoration-color:#000000;letter-spacing:normal;word-spacing:normal;text-transform:none;writing-mode:lr-tb;direction:ltr;text-orientation:mixed;dominant-baseline:auto;baseline-shift:baseline;text-anchor:start;white-space:normal;shape-padding:0;clip-rule:nonzero;display:inline;overflow:visible;visibility:visible;opacity:1;isolation:auto;mix-blend-mode:normal;color-interpolation:sRGB;color-interpolation-filters:linearRGB;solid-color:#000000;solid-opacity:1;vector-effect:none;fill:#ffffff;fill-opacity:1;fill-rule:nonzero;stroke:none;stroke-width:3.06120276;stroke-linecap:round;stroke-linejoin:round;stroke-miterlimit:4;stroke-dasharray:none;stroke-dashoffset:0;stroke-opacity:1;paint-order:fill markers stroke;color-rendering:auto;image-rendering:auto;shape-rendering:auto;text-rendering:auto;enable-background:accumulate" />
    </g>
  </g>
</svg>
